<?xml version="1.0" encoding="utf-8" ?><svg xmlns="http://www.w3.org/2000/svg" xmlns:xlink="http://www.w3.org/1999/xlink" width="192" height="192" viewBox="0 0 192 192"><defs><linearGradient id="gradient_0" gradientUnits="userSpaceOnUse" x1="93.142639" y1="93.505714" x2="156.41281" y2="39.660103"><stop offset="0" stop-color="#018DCC"/><stop offset="1" stop-color="#02E0E8"/></linearGradient></defs><path fill="url(#gradient_0)" d="M70.6246 70.6998C70.9076 68.1785 71.4386 66.4738 73.0336 64.4213C77.8999 58.1592 84.4546 53.0599 89.9619 47.4406C103.448 33.6805 112.716 23.6303 133.62 25.9929C143.49 27.155 152.502 32.1643 158.699 39.9326C164.872 47.6578 167.181 58.3198 166.148 67.9496C164.546 82.89 152.338 92.8399 141.901 102.068C137.151 106.268 133.263 111.285 128.273 115.207C124.102 118.699 115.641 122.682 110.16 123.04C99.757 124.4 90.5473 122.388 81.9734 116.25C75.5972 122.895 68.8231 129.537 62.3048 136.069C59.3428 133.938 57.729 132.007 55.2939 129.318C57.421 126.692 62.802 121.759 65.4538 119.101C68.1078 116.442 72.5499 111.687 75.1523 109.528C71.4902 105.096 68.9171 99.8671 67.6395 94.2613C70.2806 89.3879 74.481 88.2209 79.5323 86.7157C80.2435 90.657 81.0008 94.2868 82.8642 97.9009C85.7655 103.521 90.7992 107.744 96.8387 109.624C103.868 111.831 110.274 110.423 116.671 107.079C122.307 103.471 143.702 83.7716 147.947 78.182C149.929 75.5904 151.379 72.6326 152.214 69.4787C153.995 62.5725 152.705 56.7719 149.178 50.7796C148.013 49.231 146.94 47.7997 145.551 46.4289C137.546 38.5293 126.003 38.1068 116.163 42.5917C111.544 45.7191 106.732 50.5933 102.818 54.5894C99.6901 58.1201 95.4179 61.2462 92.171 64.4325C86.8609 69.6436 84.6993 69.049 77.715 69.526C76.2023 69.6293 71.812 71.437 70.6246 70.6998Z"/><path fill="#0176C3" d="M67.6395 94.2613C70.2806 89.3879 74.481 88.2209 79.5323 86.7157C80.2435 90.657 81.0008 94.2868 82.8642 97.9009C85.7655 103.521 90.7992 107.744 96.8387 109.624C103.868 111.831 110.274 110.423 116.671 107.079C119.102 108.081 124.43 103.377 125.486 101.187C126.012 100.098 128.408 98.5978 129.42 97.3415L129.385 97.4744C129.231 98.0711 129.399 98.9783 129.357 99.1018C128.072 102.892 130.192 104.424 132.285 107.156C132.971 108.049 132.632 108.151 133.881 108.955C132.882 110.179 131.857 110.759 130.912 111.803C126.877 116.263 122.718 118.44 117.166 120.517C116.566 120.742 113.578 121.986 113.092 121.948C111.948 121.857 111.298 121.985 110.16 123.04C99.757 124.4 90.5473 122.388 81.9734 116.25C75.5972 122.895 68.8231 129.537 62.3048 136.069C59.3428 133.938 57.729 132.007 55.2939 129.318C57.421 126.692 62.802 121.759 65.4538 119.101C68.1078 116.442 72.5499 111.687 75.1523 109.528C71.4902 105.096 68.9171 99.8671 67.6395 94.2613Z"/><path fill="#E7EEF1" d="M114.748 41.8558C124.845 34.4889 143.825 39.084 149.327 50.4526L149.178 50.7796C148.013 49.231 146.94 47.7997 145.551 46.4289C137.546 38.5293 126.003 38.1068 116.163 42.5917C111.544 45.7191 106.732 50.5933 102.818 54.5894C99.6901 58.1201 95.4179 61.2462 92.171 64.4325C86.8609 69.6436 84.6993 69.049 77.715 69.526C76.2023 69.6293 71.812 71.437 70.6246 70.6998C78.2269 68.5732 78.6637 68.2295 86.6364 67.9684C91.2859 63.9953 110.756 43.2506 114.748 41.8558Z"/><defs><linearGradient id="gradient_1" gradientUnits="userSpaceOnUse" x1="32.757595" y1="154.58505" x2="100.50319" y2="95.100685"><stop offset="0" stop-color="#0B2DB0"/><stop offset="1" stop-color="#0084C8"/></linearGradient></defs><path fill="url(#gradient_1)" d="M101.252 126.242C106.158 126.446 111.084 126.195 115.742 124.478C116.46 124.213 117.64 123.74 118.36 124.048L118.465 124.467C116.555 130.477 101.12 143.542 96.3616 148.482C86.1831 159.048 76.5528 167.925 60.9837 168.017C51.052 168.153 41.484 164.284 34.4388 157.282C27.4478 150.404 23.486 141.024 23.43 131.217C23.4217 120.023 28.1614 111.18 35.9598 103.651C36.6322 103.002 37.7614 101.595 38.4086 101.077C46.9592 94.2314 65.7011 71.5258 76.8333 71.5598C77.9594 71.9092 78.8943 71.9029 80.0596 71.9402L79.909 72.8947C80.2483 73.2079 80.0769 73.1271 80.6146 73.1318C80.6273 74.3022 79.5537 75.0445 79.546 75.7753C79.5232 77.9297 81.3486 80.5683 80.2943 82.587C80.1068 82.9459 80.3996 83.5569 80.523 83.984C73.3532 85.6735 68.4965 89.707 63.471 94.8544C56.8432 101.643 49.6787 107.899 43.0448 114.676C29.2743 128.744 38.1589 152.639 57.3479 155.306C69.928 156.989 76.2331 150.318 84.3435 142.413L95.4999 131.539C97.1468 129.938 99.4877 127.542 101.252 126.242Z"/><defs><linearGradient id="gradient_2" gradientUnits="userSpaceOnUse" x1="86.748138" y1="95.367256" x2="137.9926" y2="61.24519"><stop offset="0" stop-color="#017EC5"/><stop offset="1" stop-color="#03CCDF"/></linearGradient></defs><path fill="url(#gradient_2)" d="M107.561 61.9386C107.985 61.7558 108.417 61.5937 108.857 61.453C111.718 60.5152 134.808 54.7061 136.214 55.4201C136.406 56.0309 136.241 56.3718 136.055 56.987C136.263 63.1017 134.704 67.7822 132.854 73.4954C132.003 76.1232 131.683 81.3194 130.563 83.5291C130.336 83.7082 130.019 84.0642 129.74 83.9641C127.184 83.0469 123.533 79.0695 122.216 76.7324C119.436 79.1769 116.518 82.4354 113.586 84.369C117.521 87.799 120.864 94.8902 121.222 100.092C121.228 100.186 121.234 100.281 121.238 100.375C119.361 103.925 115.329 106.179 111.699 107.565C110.946 107.853 109.309 107.955 109.11 106.915C108.175 102.023 107.671 98.1155 104.819 93.8245C99.2194 99.1824 95.5532 106.693 88.6111 99.8209L87.7995 97.1317C88.7982 95.2852 96.1216 88.0254 97.9059 86.8295C92.712 84.8098 86.202 82.6622 80.523 83.984C80.3996 83.5569 80.1068 82.9459 80.2943 82.587C81.3486 80.5683 79.5232 77.9297 79.546 75.7753C79.5537 75.0445 80.6273 74.3022 80.6146 73.1318C80.0769 73.1271 80.2483 73.2079 79.909 72.8947L80.0596 71.9402C78.8943 71.9029 77.9594 71.9092 76.8333 71.5598C86.1788 69.8994 99.4027 71.4436 106.648 77.9275C108.639 75.5242 112.483 71.949 114.811 69.4295C111.795 67.1659 109.602 65.2174 107.561 61.9386Z"/><path fill="#E7EEF1" d="M130.563 83.5291C130.26 81.1387 135.051 60.0781 136.055 56.987C136.263 63.1017 134.704 67.7822 132.854 73.4954C132.003 76.1232 131.683 81.3194 130.563 83.5291Z"/></svg>